<svg class="da_svg" version="1.1" id="Layer_1" xmlns="http://www.w3.org/2000/svg" xmlns:xlink="http://www.w3.org/1999/xlink" x="0px" y="0px"
	 viewBox="0 0 1080 1080" style="enable-background:new 0 0 1080 1080;" xml:space="preserve">
<style type="text/css">
	.da_svg .st0{fill:#FAC19D;}
	.da_svg .st1{fill:#FEE1CF;}
	.da_svg .st2{fill:#283372;}
	.da_svg .st3{fill:#F26724;}
	.da_svg .st4{fill:#FFFFFF;}
</style>
<g>
	<path class="st0" d="M719.76,812.63c-11.67,59.08-30.9,84.39-68.37,103.13c-41.72,20.86-33.6,64.91-33.6,64.91
		c0,19.22,16.99,78.28,16.99,78.28l-413.47-0.1l7.04-311.46l538.92-514.37l-21,496.88L719.76,812.63z"/>
	<path class="st1" d="M688.95,6.78H343.39c-46.68,0-81.09,21.67-81.09,62.31v379.75l156,371.08l265.9,2.1
		c46.66,0,93.29-37.42,93.29-78.06V69.09C777.5,28.45,735.61,6.78,688.95,6.78"/>
	<path class="st2" d="M697.77,365.38c0,94.28-76.46,170.77-170.79,170.77c-94.32,0-170.76-76.49-170.76-170.77
		c0-94.32,76.44-170.77,170.76-170.77C621.31,194.61,697.77,271.06,697.77,365.38"/>
	<path class="st3" d="M391.59,705.01c15.24,27.12,23.79,50.39,23.79,84.52c0,19.04-2.67,37.51-7.68,44.28h285.62
		c50.88,0,84.17-29.36,84.17-75.22v-53.58H391.59z"/>
	<path class="st3" d="M777.5,54.35C777.5,8.49,733.6,0,687.75,0h-353c-45.86,0-72.45,8.49-72.45,54.35v27h515.2V54.35z"/>
	<rect x="496.18" y="27.01" class="st4" width="68.08" height="20.34"/>
	<rect x="262.3" y="69.09" class="st3" width="24.25" height="718.41"/>
	<rect x="753.27" y="70.65" class="st3" width="24.25" height="640.42"/>
	<path class="st0" d="M884.09,222.93c-12.89-26.9-46.56-38.24-73.43-25.35l-33.15,19.63v126.28l79.84-48.53
		C884.24,282.06,897,249.81,884.09,222.93"/>
	<path class="st0" d="M336.95,579.87c0,0-14.27-6.08-17.26-29.65c-4.92-38.66-11.92-76.03-20.9-114.64
		c-13.73-58.99-10.69-62.92-41.18-81.86c-31.37-19.48-70.21-7.13-70.21-7.13l0.58,363.79c10.93,144.3,39.8,187.93,39.8,187.93
		l-6.47,142.46c0,0,18.77-50.05,65-105.68c20.29-24.42,65.97-46.75,95.46-71.6c64.79-54.54,51.25-134.68,51.25-134.68
		C433.02,661.49,396.92,602.13,336.95,579.87"/>
	<path class="st0" d="M731.84,482.46c-12.9-26.91-1.57-59.15,25.35-72.07l43.15-24.89c26.89-12.88,59.15-1.55,72.04,25.35
		c12.89,26.89,1.54,59.14-25.35,72.03l-43.17,24.92C776.96,520.69,744.73,509.34,731.84,482.46"/>
	<path class="st0" d="M732.93,594.73c-12.89-26.89-1.54-59.15,25.35-72.05l43.15-24.9c26.89-12.9,59.15-1.54,72.04,25.34
		c12.9,26.89,1.54,59.14-25.34,72.04l-43.15,24.92C778.07,632.96,745.82,621.65,732.93,594.73"/>
	<path class="st0" d="M746.75,701.01c-12.9-26.89-1.56-59.14,25.34-72.05l43.17-24.9c26.88-12.89,59.14-1.55,72.03,25.34
		c12.88,26.89,1.55,59.14-25.34,72.04l-43.17,24.92C791.88,739.25,759.63,727.92,746.75,701.01"/>
	<g>
		<g>
			<circle class="st4" cx="526.99" cy="306.9" r="52.03"/>
		</g>
		<path class="st4" d="M578.73,363.3H475.26c-33.61,0-60.87,27.25-60.87,60.87l0,0v36.67c0,8.32,6.74,15.06,15.06,15.06h195.08
			c8.32,0,15.06-6.74,15.06-15.06v-36.67C639.6,390.55,612.35,363.3,578.73,363.3z"/>
	</g>
	<rect x="187.4" y="955.98" class="st2" width="469.77" height="124.02"/>
</g>
</svg>
