<?xml version="1.0" encoding="utf-8"?>
<!-- Generator: Adobe Illustrator 25.3.1, SVG Export Plug-In . SVG Version: 6.00 Build 0)  -->
<svg version="1.1" id="Layer_1" xmlns="http://www.w3.org/2000/svg" xmlns:xlink="http://www.w3.org/1999/xlink" x="0px" y="0px"
	 viewBox="0 0 1080 1080" style="enable-background:new 0 0 1080 1080;" xml:space="preserve">
<style type="text/css">
	.st0{fill:#FAC19D;}
	.st1{fill:#FEE1CF;}
	.st2{fill:#F26724;}
	.st3{fill:#EFA984;}
	.st4{fill:#283372;}
</style>
<g>
	<g>
		<path class="st0" d="M366.7,812.6c11.7,59.1,30.9,84.4,68.4,103.1c41.7,20.9,33.6,64.9,33.6,64.9c0,19.2-17,78.3-17,78.3
			l413.5-0.1l-7-311.5L319.2,233l21,496.9L366.7,812.6z"/>
		<path class="st1" d="M397.5,6.8h345.6c46.7,0,81.1,21.7,81.1,62.3v379.8l-156,371.1L402.3,822c-46.7,0-93.3-37.4-93.3-78.1V69.1
			C309,28.5,350.9,6.8,397.5,6.8"/>
		<path class="st2" d="M694.9,705c-15.2,27.1-23.8,50.4-23.8,84.5c0,19,2.7,37.5,7.7,44.3H393.1c-50.9,0-84.2-29.4-84.2-75.2V705
			L694.9,705L694.9,705z"/>
		<path class="st2" d="M309,54.3C309,8.5,352.9,0,398.7,0h353c45.9,0,72.5,8.5,72.5,54.3v27H309L309,54.3L309,54.3z"/>
		<path class="st0" d="M749.5,579.9c0,0,14.3-6.1,17.3-29.7c4.9-38.7,11.9-185.7,20.9-224.4c13.7-59,10.7-62.9,41.2-81.9
			c31.4-19.5,70.2-7.1,70.2-7.1l-0.6,473.5c-10.9,144.3-39.8,187.9-39.8,187.9l6.5,142.5c0,0-18.8-50-65-105.7
			c-20.3-24.4-66-46.8-95.5-71.6c-64.8-54.5-51.2-134.7-51.2-134.7C653.5,661.5,689.6,602.1,749.5,579.9"/>
		<path class="st3" d="M354.6,482.5c12.9-26.9,1.6-59.1-25.4-72.1l-43.1-24.9c-26.9-12.9-59.1-1.5-72,25.4
			c-12.9,26.9-1.5,59.1,25.4,72l43.2,24.9C309.5,520.7,341.8,509.3,354.6,482.5"/>
		<path class="st0" d="M357.5,373c11.1-27.7-2.3-59.1-30-70.3l-72.7-41.8c-27.7-11.1-59.1,2.3-70.2,30c-11.1,27.7,4.5,54.2,30,70.2
			l72.8,41.8C315,414.1,346.4,400.7,357.5,373"/>
		<path class="st3" d="M353.6,594.7c12.9-26.9,1.5-59.2-25.4-72l-43.1-24.9c-26.9-12.9-59.1-1.5-72,25.3
			c-12.9,26.9-1.5,59.1,25.3,72l43.1,24.9C308.4,633,340.7,621.7,353.6,594.7"/>
		<path class="st3" d="M339.7,701c12.9-26.9,1.6-59.1-25.3-72l-43.2-24.9c-26.9-12.9-59.1-1.5-72,25.3c-12.9,26.9-1.6,59.1,25.3,72
			l43.2,24.9C294.6,739.2,326.9,727.9,339.7,701"/>
		<rect x="429.3" y="956" class="st4" width="469.8" height="124"/>
	</g>
	<g>
		<path class="st4" d="M608.3,274.7h-94.9c-3.1,0-6.2,0.9-8.8,2.7c-56.8,40.2-96.8,121.6-96.8,186.5c0,84.6,68.4,103,153,103
			c84.6,0,153.2-18.5,153.2-103c0-64.8-40.2-146.3-96.9-186.5C614.5,275.6,611.4,274.7,608.3,274.7z M560.8,529.9
			c-51.6,0-93.7-42.2-93.7-94c0-51.6,42-93.7,93.7-93.7c51.7,0,93.9,42,93.9,93.7C654.7,487.7,612.5,529.9,560.8,529.9z
			 M518.6,251.3H603l21.3-70.7c2.7-9.2-7.5-16.4-15.5-11.1c-3.3,2.1-7.1,3.6-13,3.6c-17.5,0-17.5-14-35-14c-17.4,0-17.4,14-34.9,14
			c-5.7,0-9.6-1.5-12.8-3.6c-8.1-5.3-18.2,2-15.5,11.2L518.6,251.3z"/>
	</g>
</g>
<path class="st2" d="M560.6,491.8c0.6,0.6,1.3,0.6,1.9,0.6h16.2c1,0,1.9-0.6,2.6-1.6c0.3-1,0.3-2.3-0.6-2.9L545,451.6h2.3
	c16.9,0,31.5-11.7,35.4-28.2h12.7c1.6,0,2.6-1.3,2.6-2.6v-10.7c0-1.6-1.3-2.6-2.6-2.6h-12.7c-1-4.2-2.9-8.4-5.2-12h17.8
	c1.6,0,2.6-1.3,2.6-2.6v-10.7c0-1.6-1.3-2.6-2.6-2.6h-68.4c-1.6,0-2.6,1.3-2.6,2.6v11.7c0,1.6,1.3,2.6,2.6,2.6h20.8
	c7.5,0,14.3,4.2,17.5,11h-38.3c-1.6,0-2.6,1.3-2.6,2.6v10.7c0,1.6,1.3,2.6,2.6,2.6h38c-3.2,6.8-9.7,11-17.5,11h-20.8
	c-1.6,0-2.6,1.3-2.6,2.6v16.2c0,0.6,0.3,1.3,0.6,1.9L560.6,491.8z"/>
</svg>
