<?xml version="1.0" encoding="utf-8"?>
<!-- Generator: Adobe Illustrator 25.3.1, SVG Export Plug-In . SVG Version: 6.00 Build 0)  -->
<svg version="1.1" id="Layer_1" xmlns="http://www.w3.org/2000/svg" xmlns:xlink="http://www.w3.org/1999/xlink" x="0px" y="0px"
	 viewBox="0 0 1080 1080" style="enable-background:new 0 0 1080 1080;" xml:space="preserve">
<style type="text/css">
	.st0{fill:#E4EAF4;}
	.st1{fill:#C3CFE2;}
	.st2{clip-path:url(#SVGID_3_);}
	.st3{fill:#B2BED1;}
	.st4{fill:#CCD0D6;}
	.st5{fill:#FCC39E;}
	.st6{fill:#F16925;}
	.st7{fill:#FFFFFF;}
	.st8{fill:#E7EFFA;}
	.st9{fill:#273472;}
	.st10{fill:#F4F4F6;}
</style>
<g>
	<g>
		<g>
			<g>
				<polygon class="st0" points="703.1,418.5 379.7,418.5 416.5,260.7 666.3,260.7 				"/>
			</g>
		</g>
		<g>
			<g>
				<g>
					<rect id="SVGID_1_" x="379.7" y="417.1" class="st1" width="323.5" height="92.9"/>
				</g>
				<g>
					<defs>
						<rect id="SVGID_2_" x="379.7" y="417.1" width="323.5" height="92.9"/>
					</defs>
					<clipPath id="SVGID_3_">
						<use xlink:href="#SVGID_2_"  style="overflow:visible;"/>
					</clipPath>
					<g class="st2">
						<g>
							<g>
								<rect x="362.6" y="432.1" class="st3" width="357.6" height="10.9"/>
							</g>
						</g>
						<g>
							<g>
								<rect x="362.6" y="458.6" class="st3" width="357.6" height="10.9"/>
							</g>
						</g>
						<g>
							<g>
								<rect x="362.6" y="485.1" class="st3" width="357.6" height="10.9"/>
							</g>
						</g>
					</g>
				</g>
			</g>
		</g>
	</g>
	<g>
		<g>
			<g>
				<path class="st4" d="M125.1,491.2v-27.1H4.7v134.3c0,24.4,19.8,44.3,44.3,44.3h25.4h50.7h84.6V525h-51.5
					C133.8,525,125.1,515.6,125.1,491.2z"/>
			</g>
		</g>
		<g>
			<g>
				<path class="st5" d="M392.4,575.8v-0.2c0-7,5.7-12.7,12.7-12.7h20.1c21.4,0,38.9-17.3,38.9-38.9v-0.4h-71.7h-62.2H219.7v94.6
					c0,0,67.5,54.7,101.7,62.9c64.3,15.5,108.9,8.8,108.9,8.8c53.1,0,96-43,96-96v-1c0-2.5-1.9-4.4-4.4-4.4H405.1
					C398.1,588.5,392.4,582.8,392.4,575.8z"/>
			</g>
		</g>
		<g>
			<g>
				<path class="st6" d="M224.4,654.9h-35.9V523.6h44.7V646C233.2,650.9,229.4,654.9,224.4,654.9z"/>
			</g>
		</g>
		<g>
			<g>
				<path class="st7" d="M219.2,632.6c0,5.6-4.5,10.1-10.1,10.1s-10.1-4.5-10.1-10.1s4.5-10.1,10.1-10.1
					C214.7,622.4,219.2,626.9,219.2,632.6z"/>
			</g>
		</g>
	</g>
	<g>
		<g>
			<g>
				<path class="st8" d="M956.9,491.2v-27.1h120.4v134.3c0,24.4-19.8,44.3-44.3,44.3h-25.4h-50.7h-84.6V525h51.5
					C948.2,525,956.9,515.6,956.9,491.2z"/>
			</g>
		</g>
		<g>
			<g>
				<path class="st5" d="M688.8,575.8v-0.2c0-7-5.7-12.7-12.7-12.7H656c-21.4,0-38.9-17.3-38.9-38.9v-0.4h71.7H751h110.4v94.6
					c0,0-67.5,54.7-101.7,62.9c-64.3,15.5-108.9,8.8-108.9,8.8c-53.1,0-96-43-96-96v-1c0-2.5,1.9-4.4,4.4-4.4h116.8
					C683.1,588.5,688.8,582.8,688.8,575.8z"/>
			</g>
		</g>
		<g>
			<g>
				<path class="st9" d="M857.5,654.9h35.9V523.6h-44.7V646C848.8,650.9,852.7,654.9,857.5,654.9z"/>
			</g>
		</g>
		<g>
			<g>
				<path class="st6" d="M883.1,632.6c0,5.6-4.5,10.1-10.1,10.1s-10.1-4.5-10.1-10.1s4.5-10.1,10.1-10.1
					C878.5,622.4,883.1,626.9,883.1,632.6z"/>
			</g>
		</g>
	</g>
	<path class="st9" d="M541,391.2c0.5,0.5,1,0.5,1.5,0.5h12.9c0.8,0,1.5-0.5,2.1-1.3c0.3-0.8,0.3-1.9-0.5-2.3l-28.5-29h1.9
		c13.4,0,25.1-9.3,28.3-22.5h10.2c1.3,0,2.1-1,2.1-2.1v-8.5c0-1.3-1-2.1-2.1-2.1h-10.2c-0.8-3.4-2.3-6.7-4.1-9.6h14.2
		c1.3,0,2.1-1,2.1-2.1v-8.5c0-1.3-1-2.1-2.1-2.1h-54.7c-1.3,0-2.1,1-2.1,2.1v9.3c0,1.3,1,2.1,2.1,2.1h16.6c6,0,11.4,3.4,13.9,8.8
		H514c-1.3,0-2.1,1-2.1,2.1v8.5c0,1.3,1,2.1,2.1,2.1h30.4c-2.5,5.4-7.8,8.8-13.9,8.8h-16.6c-1.3,0-2.1,1-2.1,2.1v12.9
		c0,0.5,0.3,1,0.5,1.5L541,391.2z"/>
</g>
<g>
	<g>
		<path class="st9" d="M1052.4,880.6H29.7C13.9,880.6,1,867.8,1,851.9V817h1080.1v34.9C1081.2,867.8,1068.3,880.6,1052.4,880.6z"/>
		<path class="st10" d="M614.7,834.4H467.4c-3.2,0-5.7-2.6-5.7-5.7v-11.6h158.8v11.6C620.5,831.9,618,834.4,614.7,834.4z"/>
	</g>
	<path class="st6" d="M978.4,172.7H103.8c-17.4,0-31.7,14.1-31.7,31.7v581.1c0,17.4,14.1,31.7,31.7,31.7h874.7
		c17.4,0,31.7-14.1,31.7-31.7V204.3C1010,186.9,995.9,172.7,978.4,172.7z M541.1,187.7c6.5,0,11.7,5.3,11.7,11.7
		c0,6.5-5.3,11.7-11.7,11.7c-6.5,0-11.7-5.3-11.7-11.7C529.3,193,534.6,187.7,541.1,187.7z M968.7,763.1H113.5V226.7h855.2V763.1z"
		/>
</g>
</svg>
