<svg class="mb_svg" version="1.1" id="Layer_1" xmlns="http://www.w3.org/2000/svg" xmlns:xlink="http://www.w3.org/1999/xlink" x="0px" y="0px"
	 viewBox="0 0 1080 1080" style="enable-background:new 0 0 1080 1080;" xml:space="preserve">
<style type="text/css">
	.mb_svg .st0{fill:none;}
	.mb_svg .st1{fill:#E75D24;}
	.mb_svg .st2{fill:url(#SVGID_1_);}
	.mb_svg .st3{fill:#FFFFFF;}
	.mb_svg .st4{fill:#283372;}
	.mb_svg .st5{fill:#FCD8C1;}
	.mb_svg .st6{fill:#E28426;}
	.mb_svg .st7{fill:#D4D3D2;}
</style>
<pattern  width="279.33" height="241.43" patternUnits="userSpaceOnUse" id="Unnamed_Pattern_11728" viewBox="0 -241.43 279.33 241.43" style="overflow:visible;">
	<g>
		<rect y="-241.43" class="st0" width="279.33" height="241.43"/>
		<rect y="-241.43" class="st1" width="279.33" height="241.43"/>
	</g>
</pattern>
<g>
	<pattern  id="SVGID_1_" xlink:href="#Unnamed_Pattern_11728" patternTransform="matrix(0.9 0 0 -0.9 2960.4287 1962.6027)">
	</pattern>
	<path class="st2" d="M804.35,1014.67c0,36.08-27.18,65.33-60.71,65.33H221.21c-33.53,0-60.71-29.24-60.71-65.33V65.33
		C160.5,29.25,187.68,0,221.21,0h522.44c33.53,0,60.71,29.25,60.71,65.33V1014.67z"/>
	<path class="st3" d="M767.65,958.43V78.68c0-23.66-12.67-40.36-36.34-40.36H607.08L586.2,90.24H477.66V998.9h256.1
		c20.47,0,33.89-18.61,33.89-35.68C767.65,961.57,767.91,960.06,767.65,958.43"/>
	<path class="st3" d="M196.52,958.43V78.68c0-23.66,12.68-40.36,36.34-40.36h124.23l20.88,51.93h108.54V998.9H230.42
		c-20.48,0-33.89-18.61-33.89-35.68C196.52,961.57,196.26,960.06,196.52,958.43"/>
	<polygon class="st4" points="460.4,673.18 462.55,758.33 560.57,675.68 	"/>
	<g>
		<path class="st5" d="M570.69,307.36c0,17.39-14.1,31.47-31.47,31.47H88.31c-17.39,0-31.48-14.08-31.48-31.47V150.9
			c0-17.38,14.09-31.47,31.48-31.47h450.92c17.37,0,31.47,14.09,31.47,31.47V307.36z"/>
		<rect x="264.68" y="194.48" class="st3" width="115.48" height="17.32"/>
		<rect x="264.69" y="240.67" class="st3" width="219.4" height="17.32"/>
		<polygon class="st5" points="517.39,338.83 518.39,397.35 441.36,338.83 		"/>
		<path class="st3" d="M170.82,222.41c14.87,0,26.92-12.05,26.92-26.91c0-14.87-12.05-26.91-26.92-26.91
			c-14.86,0-26.92,12.05-26.92,26.91C143.9,210.36,155.95,222.41,170.82,222.41"/>
		<path class="st3" d="M172.7,230.99c-26.18,0-47.41,15.46-47.41,38.55h94.83C220.12,246.45,198.88,230.99,172.7,230.99"/>
	</g>
	<path class="st4" d="M373.95,646.64c0,21.58,17.48,39.05,39.05,39.05h571.1c21.57,0,39.06-17.47,39.06-39.05v-201.6
		c0-21.57-17.5-39.06-39.06-39.06h-571.1c-21.58,0-39.05,17.49-39.05,39.06V646.64z"/>
	<rect x="487.81" y="508.68" class="st3" width="300.94" height="21.5"/>
	<rect x="487.81" y="573.17" class="st3" width="207.79" height="21.5"/>
	<g>
		<path class="st3" d="M894.77,548.76c20.89,0,37.78-16.92,37.78-37.8c0-20.88-16.9-37.79-37.78-37.79
			c-20.88,0-37.8,16.91-37.8,37.79C856.97,531.84,873.89,548.76,894.77,548.76"/>
		<path class="st3" d="M894.04,556c-42.67,0-77.25,28.13-77.25,62.83H971.3C971.3,584.13,936.73,556,894.04,556"/>
	</g>
	<path class="st6" d="M743.85,159.64c0,35.65-28.9,64.54-64.54,64.54c-35.66,0-64.56-28.89-64.56-64.54
		c0-35.66,28.89-64.55,64.56-64.55C714.94,95.09,743.85,123.98,743.85,159.64"/>
	<path class="st3" d="M664.54,147.11c0.4-1.63,3.79-4.09,5.07-5.4c2.45-2.53,4.74-4.52,1.91-9.9c-1.76-3.36-4.24-7.22-7-9.75
		c-4.8-4.4-13.48,1.74-15.9,6.66c-12.18,24.81,30.01,73.59,56.59,65.42c5.23-1.6,12.53-9.38,8.88-14.76
		c-2.12-3.1-5.58-6.11-8.65-8.34c-4.92-3.58-7.21-1.59-10.06,0.46c-1.5,1.07-4.42,4.03-6.09,4.23
		C680.73,176.78,662.41,155.61,664.54,147.11"/>
	<rect x="263.37" y="782.14" class="st7" width="268.37" height="72.25"/>
	<rect x="263.37" y="883.6" class="st7" width="439.6" height="72.25"/>
</g>
</svg>
