<?xml version="1.0" encoding="utf-8"?>
<!-- Generator: Adobe Illustrator 25.4.1, SVG Export Plug-In . SVG Version: 6.00 Build 0)  -->
<svg version="1.1" id="Layer_1" xmlns="http://www.w3.org/2000/svg" xmlns:xlink="http://www.w3.org/1999/xlink" x="0px" y="0px"
	 viewBox="0 0 1080 1080" style="enable-background:new 0 0 1080 1080;" xml:space="preserve">
<style type="text/css">
	.st0{fill:#FFEDE3;}
	.st1{fill:#F6BD98;}
	.st2{fill:#FFFFFF;}
	.st3{fill:#25326A;}
	.st4{fill:#E35E26;}
	.st5{fill:#D9FFFF;}
	.st6{fill:#BFC5D8;}
</style>
<g>
	<g>
		<path class="st0" d="M1021.1,977.4H170.7c-20.5,0-37-16.6-37-37V90c0-20.5,16.6-37,37-37h850.4c20.5,0,37,16.6,37,37v850.4
			C1058.1,960.8,1041.5,977.4,1021.1,977.4z"/>
		<path class="st1" d="M974.8,929.7H216.9c-19.6,0-35.6-16-35.6-35.6V136.2c0-19.6,16-35.6,35.6-35.6h757.9
			c19.6,0,35.6,16,35.6,35.6v757.9C1010.4,913.8,994.5,929.7,974.8,929.7z"/>
		<circle class="st2" cx="800.9" cy="539.8" r="167.4"/>
		<circle class="st3" cx="800.9" cy="539.8" r="88"/>
		<path id="Path_64_17_" class="st4" d="M264.2,426.9h125.1v49.7H264.2V426.9z"/>
		<path id="Path_64_16_" class="st4" d="M264.2,565.3h125.1V615H264.2V565.3z"/>
		<path id="Path_64_15_" class="st4" d="M264.2,703.7h125.1v49.7H264.2V703.7z"/>
		<path id="Path_64_9_" class="st4" d="M417.4,426.9h125.1v49.7H417.4V426.9z"/>
		<path id="Path_64_8_" class="st4" d="M417.4,565.3h125.1V615H417.4V565.3z"/>
		<path id="Path_64_7_" class="st4" d="M417.4,703.7h125.1v49.7H417.4V703.7z"/>
		<path id="Path_64_11_" class="st3" d="M227.5,977.4h125.1v49.7H227.5V977.4z"/>
		<path id="Path_64_10_" class="st3" d="M819.5,977.4h125.1v49.7H819.5V977.4z"/>
		<path class="st4" d="M801,707c91.8,0,166.3-74.5,167-166c0-0.5,0.3-0.9,0.3-1.3c0-0.5-0.2-0.8-0.3-1.3
			c-0.6-92.1-75.6-165.9-167-166c0,0,0,0-0.1,0c0,0,0,0,0,0c-0.1,0-0.1,0-0.2,0c-90.1,0-167.3,72.8-167.3,167.3
			C633.4,631.7,708.1,707,801,707z M671.1,525.7h-9c2.7-27.4,13.3-53,30.8-74.2l6.3,6.3c5.5,5.5,14.3,5.5,19.8,0
			c5.5-5.5,5.5-14.3,0-19.8l-6.2-6.2c21.2-17.4,46.8-28,74.1-30.7v8.8c0,7.7,6.3,14,14,14s14-6.3,14-14v-8.8
			c27.3,2.7,52.8,13.3,74,30.8l-6.1,6.1c-5.5,5.5-5.5,14.3,0,19.8c5.5,5.5,14.3,5.5,19.8,0l6-6c17.4,21.1,28,46.7,30.7,73.9h-8.6
			c-7.7,0-14,6.3-14,14s6.3,14,14,14h8.5c-2.7,27.2-13.3,52.7-30.7,73.9l-6-6c-5.5-5.5-14.3-5.5-19.8,0c-5.5,5.5-5.5,14.3,0,19.8
			l6.1,6.1c-21.1,17.4-46.6,28.1-74,30.8v-8.7c0-7.7-6.3-14-14-14s-14,6.3-14,14v8.8c-27.3-2.7-52.8-13.3-74.1-30.7l6.2-6.2
			c5.5-5.5,5.5-14.3,0-19.8c-5.5-5.5-14.3-5.5-19.8,0l-6.3,6.3c-17.4-21.2-28.1-46.8-30.8-74.1h9c7.7,0,14-6.3,14-14
			C685.1,532,678.9,525.7,671.1,525.7z"/>
	</g>
	<g>
		<g>
			<g>
				<g>
					<path class="st5" d="M354,208.6L354,208.6c0-0.5,0-0.7,0-0.8C354,207.9,354,208.6,354,208.6z"/>
					<path class="st5" d="M354,208.6L354,208.6c0-0.5,0-0.7,0-0.8C354,207.9,354,208.6,354,208.6z"/>
					<path class="st5" d="M22,211.9c0,0,0-0.7,0-0.8C21.9,211.2,21.9,211.4,22,211.9L22,211.9z"/>
					<path class="st5" d="M22,211.9c0,0,0-0.7,0-0.8C21.9,211.2,21.9,211.4,22,211.9L22,211.9z"/>
					<path class="st6" d="M186.7,128.9c39,37.1,100.9,67.3,167.1,79.9c0,4,0.3,26,1.6,127.4c1.7,135.3-140.9,202.2-163.1,212.5
						c-21.6-8.8-166.9-73.9-168.6-209.2c-1.2-101.4-1.5-123.4-1.6-127.4C88,198.1,148.7,166.7,186.7,128.9z"/>
				</g>
			</g>
			<g>
				<path class="st2" d="M187.3,153.3c38.1,31.1,90.8,55.3,148.6,68.4l1.4,114.6c0.6,52.4-22.2,100-67.8,141.4
					c-30,27.2-61.6,44.2-77.6,51.8c-0.7-0.3-1.5-0.7-2.2-1l-2.7-375C187.1,153.5,187.2,153.4,187.3,153.3z"/>
				<path class="st2" d="M187,153.6l2.7,375c-16.8-7.7-47.3-23.8-76.7-49.2c-46.6-40.5-70.6-87.6-71.2-140.1l-1.4-114.6
					C97.7,210.5,149.6,185.3,187,153.6z"/>
			</g>
		</g>
		<g>
			<path class="st4" d="M121.1,317.1l0.7,98.2c0.1,10.9,134.2,10.1,134.2-0.9l-0.7-98.2L121.1,317.1z M171.8,353.9
				c-0.1-9.1,7.3-16.5,16.4-16.6c9.2-0.1,16.7,7.2,16.7,16.4c0,6.7-4,12.5-9.7,15.1l0.2,27.9c0,3.7-3,6.8-6.8,6.8
				c-3.7,0-6.8-3-6.8-6.7l-0.2-27.8C175.9,366.4,171.9,360.6,171.8,353.9z"/>
			<path class="st3" d="M132.8,310.1l13.6-0.1l0-6.6c-0.2-22.9,18.5-41.7,41.5-41.8c23-0.2,41.9,18.4,42,41.3l0,6.6l13.6-0.1l0-6.6
				c-0.2-30.4-25.2-54.9-55.7-54.7c-30.5,0.2-55.2,25.1-55,55.4L132.8,310.1z"/>
		</g>
	</g>
</g>
</svg>
