<svg class="wb_svg" version="1.1" id="Layer_1" xmlns="http://www.w3.org/2000/svg" xmlns:xlink="http://www.w3.org/1999/xlink" x="0px" y="0px"
	 viewBox="0 0 1080 1080" style="enable-background:new 0 0 1080 1080;" xml:space="preserve">
<style type="text/css">
	.wb_svg .st0{fill:#FFFFFF;}
	.wb_svg .st1{fill:#F16925;}
	.wb_svg .st2{fill-rule:evenodd;clip-rule:evenodd;fill:#273472;}
	.wb_svg .st3{fill-rule:evenodd;clip-rule:evenodd;fill:#FCC39E;}
	.wb_svg .st4{fill:#273472;}
</style>
<g>
	<g>
		<path class="st0" d="M616.32,8.78H168.73c-60.46,0-105.03,28.07-105.03,80.71v491.87l40.79,480.64l505.68,2.72
			c60.44,0,120.83-48.47,120.83-101.11V89.49C731.01,36.85,676.75,8.78,616.32,8.78"/>
		<path class="st1" d="M215.42,1080h406.56c65.9,0,109.02-38.03,109.02-97.43v-69.4H231.16l-36.6,0"/>
		<path class="st1" d="M557.34,913.17l6.19,0H63.69v69.4c0,59.4,43.12,97.43,109.02,97.43h363.76"/>
		<path class="st1" d="M731.01,70.4C731.01,11,674.15,0,614.76,0H157.53c-59.4,0-93.84,11-93.84,70.4v34.97h667.32V70.4z"/>
		<rect x="366.63" y="34.98" class="st0" width="88.18" height="26.35"/>
		<rect x="63.69" y="89.49" class="st1" width="31.41" height="845.78"/>
		<rect x="699.63" y="91.51" class="st1" width="31.41" height="829.51"/>
		<g transform="translate(0,-952.36218)">
			<path class="st2" d="M410.72,1231.16c-136.62,0-247.17,110.49-247.17,247.17c0,51.55,15.72,99.23,43.64,140.19
				c2.11,3.12,2.67,7.03,1.54,10.62l-25.1,84l82.26-28.39c3.56-1.19,7.47-0.69,10.62,1.35c38.53,25,84.66,39.39,134.21,39.39
				c136.68,0,247.17-110.49,247.17-247.17C657.89,1341.65,547.4,1231.16,410.72,1231.16z M309.53,1338.92l44.99,74.34l-18.73,18.54
				c-3.92,3.96-4.71,10.04-1.93,14.87c28.58,49.5,62.45,88.01,109.88,108.91c4.65,2.07,10.09,1.07,13.71-2.51l19.89-19.89
				l72.61,45.38c-8.04,18.09-18.52,28.87-30.51,35.14c-13.89,7.27-30.85,8.65-50.21,4.63c-38.71-8.03-85.48-38.45-123.59-77.43
				c-38.11-38.98-67.6-86.38-75.12-124.94c-3.76-19.28-2.1-35.88,5.02-49.05C281.68,1355.58,292.09,1345.88,309.53,1338.92
				L309.53,1338.92z"/>
		</g>
		<g>
			<path class="st3" d="M674.33,763.93c-8.65,2.22-30.4-0.48-44.3-1.24c-13.88-0.76-19.9,0.41-24.84,3.8
				c-4.95,3.38-8.79,8.97-11.17,14.47c-2.38,5.51-3.27,10.92-3.01,15.39c0.27,4.45,1.65,7.95,6.98,12.42
				c5.32,4.49,14.57,9.92,33.16,17.64c18.59,7.72,46.47,17.7,75.16,25.86c28.69,8.15,58.17,14.47,74.56,18.2
				c16.37,3.72,19.66,4.84,26.72,11.37c7.05,6.51,17.88,18.44,24.64,25.99c6.75,7.55,9.43,10.73,31.32-5.36
				c21.88-16.1,62.95-51.5,83.56-70.03c20.6-18.54,20.75-20.22,17.98-24.9c-2.78-4.67-8.45-12.34-13.8-19.15
				c-5.34-6.8-10.33-12.71-12.99-18.65c-2.67-5.94-3.01-11.89-2.95-17.37l0.55-16.44c0.08-5.91-0.18-12.7-3.21-21.84
				c-3.02-9.13-8.82-20.62-22.52-38.29c-13.73-17.65-35.36-41.49-48.72-55.95c-13.35-14.46-18.42-19.54-23.85-22.75
				c-5.44-3.21-11.24-4.55-17.49-3.18c-6.25,1.37-12.95,5.45-16.92,9.98c-3.98,4.52-5.26,9.48-3.84,15.31
				c1.4,5.83,5.48,12.52,8.48,17.01c3,4.49,4.92,6.77,5.36,9.12c0.43,2.36-0.63,4.82-3.42,2.88c-2.8-1.93-7.33-8.23-13.08-15.06
				c-5.76-6.84-12.75-14.2-19.11-18.96c-6.36-4.77-12.1-6.96-17.17-6.96c-5.08-0.01-9.49,2.15-13.52,4.77
				c-4.02,2.61-7.67,5.69-9.66,9.32c-2.01,3.64-2.36,7.83-0.63,12.2c1.74,4.38,5.58,8.94,8.58,13.43c3,4.48,5.17,8.9,5.97,11.71
				c0.83,2.81,0.3,4.03-3.98-0.13c-4.3-4.17-12.37-13.74-19.19-20.45c-6.83-6.71-12.42-10.57-18.38-12.56
				c-5.97-1.99-12.29-2.1-17.51-0.44c-5.21,1.66-9.31,5.13-11.62,9.79c-2.3,4.67-2.8,10.54-0.82,17.05
				c1.98,6.52,6.44,13.66,8.62,18.07c2.15,4.41,2.01,6.09-1.83,1.54c-3.84-4.55-11.38-15.35-26.47-34.18
				c-15.09-18.84-37.74-45.72-51.51-60.2c-13.78-14.49-18.67-16.61-24.28-17.72c-5.62-1.11-11.95-1.21-17.59,0.4
				c-5.62,1.64-10.57,5.02-13.48,9.42c-2.93,4.4-3.81,9.82-3.46,15.76c0.33,5.97,1.9,12.44,22.85,39.59
				c20.93,27.15,61.24,74.98,83.63,102.48C678.51,754.55,682.98,761.7,674.33,763.93z"/>
		</g>
		<path class="st4" d="M816.59,900.99l139.96-117.83c11.13-9.37,30.43-4.74,43.12,10.33l6.23,7.4
			c12.69,15.07,13.95,34.88,2.82,44.25L868.76,962.97c-11.13,9.37-30.43,4.74-43.12-10.33l-6.23-7.4
			C806.72,930.17,805.46,910.36,816.59,900.99z"/>
	</g>
	<circle class="st0" cx="389.77" cy="996.59" r="35.7"/>
</g>
</svg>
